<svg width="405" height="94" viewBox="0 0 405 94" fill="none" xmlns="http://www.w3.org/2000/svg">
<path d="M12 0H0V92H12V0Z" fill="#F16D7F"/>
<path d="M56.512 19.5617H46.672V48.0977H38.56V19.5617H28.72V13.1297H56.512V19.5617ZM91.162 13.1297V48.0977H83.002V33.3137H68.794V48.0977H60.634V13.1297H68.794V27.7457H83.002V13.1297H91.162ZM106.107 19.3697V27.5297H117.099V33.5297H106.107V41.8577H120.458V48.0977H97.9465V13.1297H120.458V19.3697H106.107ZM150.396 41.9777C151.468 41.9777 152.34 41.8417 153.012 41.5697C153.7 41.2977 154.236 40.9457 154.62 40.5137C155.004 40.0817 155.268 39.5937 155.412 39.0497C155.556 38.5057 155.628 37.9537 155.628 37.3937C155.628 36.7537 155.54 36.1777 155.364 35.6657C155.204 35.1537 154.916 34.7217 154.5 34.3697C154.1 34.0177 153.564 33.7457 152.892 33.5537C152.22 33.3617 151.372 33.2657 150.348 33.2657H144.684V41.9777H150.396ZM144.684 19.2017V27.8417H148.908C149.804 27.8417 150.612 27.7777 151.332 27.6497C152.052 27.5217 152.66 27.2977 153.156 26.9777C153.668 26.6577 154.052 26.2177 154.308 25.6577C154.58 25.0977 154.716 24.3937 154.716 23.5457C154.716 22.7137 154.612 22.0257 154.404 21.4817C154.196 20.9217 153.876 20.4737 153.444 20.1377C153.012 19.8017 152.46 19.5617 151.788 19.4177C151.132 19.2737 150.348 19.2017 149.436 19.2017H144.684ZM149.436 13.1297C151.852 13.1297 153.908 13.3537 155.604 13.8017C157.3 14.2497 158.684 14.8817 159.755 15.6977C160.828 16.5137 161.604 17.5057 162.084 18.6737C162.58 19.8417 162.828 21.1457 162.828 22.5857C162.828 23.3697 162.716 24.1297 162.492 24.8657C162.268 25.5857 161.916 26.2657 161.436 26.9057C160.956 27.5297 160.34 28.1057 159.588 28.6337C158.836 29.1617 157.932 29.6177 156.876 30.0017C159.18 30.5617 160.884 31.4657 161.988 32.7137C163.092 33.9617 163.644 35.5777 163.644 37.5617C163.644 39.0497 163.356 40.4337 162.78 41.7137C162.204 42.9937 161.356 44.1137 160.236 45.0737C159.132 46.0177 157.764 46.7617 156.132 47.3057C154.5 47.8337 152.636 48.0977 150.54 48.0977H136.572V13.1297H149.436ZM180.104 29.5697C181.208 29.5697 182.144 29.4337 182.912 29.1617C183.696 28.8737 184.336 28.4817 184.832 27.9857C185.328 27.4897 185.688 26.9137 185.912 26.2577C186.136 25.5857 186.248 24.8657 186.248 24.0977C186.248 22.5617 185.744 21.3617 184.736 20.4977C183.744 19.6337 182.2 19.2017 180.104 19.2017H176.84V29.5697H180.104ZM197.336 48.0977H189.992C188.632 48.0977 187.656 47.5857 187.064 46.5617L181.256 36.4097C180.984 35.9777 180.68 35.6657 180.344 35.4737C180.008 35.2657 179.528 35.1617 178.904 35.1617H176.84V48.0977H168.728V13.1297H180.104C182.632 13.1297 184.784 13.3937 186.56 13.9217C188.352 14.4337 189.808 15.1537 190.928 16.0817C192.064 17.0097 192.888 18.1057 193.4 19.3697C193.912 20.6337 194.168 22.0097 194.168 23.4977C194.168 24.6337 194.016 25.7057 193.712 26.7137C193.408 27.7217 192.96 28.6577 192.368 29.5217C191.776 30.3697 191.04 31.1297 190.16 31.8017C189.296 32.4737 188.296 33.0257 187.16 33.4577C187.688 33.7297 188.184 34.0737 188.648 34.4897C189.112 34.8897 189.528 35.3697 189.896 35.9297L197.336 48.0977ZM218.755 34.7297L215.515 25.1537C215.275 24.5457 215.019 23.8337 214.747 23.0177C214.475 22.1857 214.203 21.2897 213.931 20.3297C213.691 21.3057 213.435 22.2097 213.163 23.0417C212.891 23.8737 212.635 24.5937 212.395 25.2017L209.179 34.7297H218.755ZM231.643 48.0977H225.355C224.651 48.0977 224.083 47.9377 223.651 47.6177C223.219 47.2817 222.891 46.8577 222.667 46.3457L220.603 40.2497H207.307L205.243 46.3457C205.067 46.7937 204.747 47.2017 204.283 47.5697C203.835 47.9217 203.275 48.0977 202.603 48.0977H196.267L209.803 13.1297H218.107L231.643 48.0977ZM264.928 13.1297V48.0977H260.704C260.08 48.0977 259.552 48.0017 259.12 47.8097C258.704 47.6017 258.288 47.2497 257.872 46.7537L241.384 25.8977C241.448 26.5217 241.488 27.1297 241.504 27.7217C241.536 28.2977 241.552 28.8417 241.552 29.3537V48.0977H234.4V13.1297H238.672C239.024 13.1297 239.32 13.1457 239.56 13.1777C239.8 13.2097 240.016 13.2737 240.208 13.3697C240.4 13.4497 240.584 13.5697 240.76 13.7297C240.936 13.8897 241.136 14.1057 241.36 14.3777L257.992 35.3777C257.912 34.7057 257.856 34.0577 257.824 33.4337C257.792 32.7937 257.776 32.1937 257.776 31.6337V13.1297H264.928ZM303.44 30.6017C303.44 33.1297 303 35.4657 302.12 37.6097C301.256 39.7377 300.032 41.5857 298.448 43.1537C296.864 44.7057 294.952 45.9217 292.712 46.8017C290.488 47.6657 288.016 48.0977 285.296 48.0977H271.712V13.1297H285.296C288.016 13.1297 290.488 13.5697 292.712 14.4497C294.952 15.3297 296.864 16.5457 298.448 18.0977C300.032 19.6497 301.256 21.4977 302.12 23.6417C303 25.7697 303.44 28.0897 303.44 30.6017ZM295.136 30.6017C295.136 28.8737 294.912 27.3137 294.464 25.9217C294.016 24.5297 293.368 23.3537 292.52 22.3937C291.688 21.4177 290.664 20.6737 289.448 20.1617C288.232 19.6337 286.848 19.3697 285.296 19.3697H279.872V41.8577H285.296C286.848 41.8577 288.232 41.6017 289.448 41.0897C290.664 40.5617 291.688 39.8177 292.52 38.8577C293.368 37.8817 294.016 36.6977 294.464 35.3057C294.912 33.9137 295.136 32.3457 295.136 30.6017ZM52.64 74.5297C52.64 76.2257 52.3573 77.799 51.792 79.2497C51.2373 80.6897 50.448 81.9377 49.424 82.9937C48.4 84.0497 47.168 84.8763 45.728 85.4737C44.288 86.0603 42.688 86.3537 40.928 86.3537C39.1787 86.3537 37.584 86.0603 36.144 85.4737C34.704 84.8763 33.4667 84.0497 32.432 82.9937C31.408 81.9377 30.6133 80.6897 30.048 79.2497C29.4827 77.799 29.2 76.2257 29.2 74.5297C29.2 72.8337 29.4827 71.2657 30.048 69.8257C30.6133 68.375 31.408 67.1217 32.432 66.0657C33.4667 65.0097 34.704 64.1883 36.144 63.6017C37.584 63.0043 39.1787 62.7057 40.928 62.7057C42.1013 62.7057 43.2053 62.8443 44.24 63.1217C45.2747 63.3883 46.224 63.7723 47.088 64.2737C47.952 64.7643 48.7253 65.367 49.408 66.0817C50.1013 66.7857 50.688 67.575 51.168 68.4497C51.648 69.3243 52.0107 70.2737 52.256 71.2977C52.512 72.3217 52.64 73.399 52.64 74.5297ZM48.24 74.5297C48.24 73.2603 48.0693 72.1243 47.728 71.1217C47.3867 70.1083 46.9013 69.2497 46.272 68.5457C45.6427 67.8417 44.8747 67.303 43.968 66.9297C43.072 66.5563 42.0587 66.3697 40.928 66.3697C39.7973 66.3697 38.7787 66.5563 37.872 66.9297C36.976 67.303 36.208 67.8417 35.568 68.5457C34.9387 69.2497 34.4533 70.1083 34.112 71.1217C33.7707 72.1243 33.6 73.2603 33.6 74.5297C33.6 75.799 33.7707 76.9403 34.112 77.9537C34.4533 78.9563 34.9387 79.8097 35.568 80.5137C36.208 81.207 36.976 81.7403 37.872 82.1137C38.7787 82.487 39.7973 82.6737 40.928 82.6737C42.0587 82.6737 43.072 82.487 43.968 82.1137C44.8747 81.7403 45.6427 81.207 46.272 80.5137C46.9013 79.8097 47.3867 78.9563 47.728 77.9537C48.0693 76.9403 48.24 75.799 48.24 74.5297ZM60.7398 66.3857V73.2337H69.4118V76.6737H60.7398V86.0977H56.4198V62.9617H71.0118V66.3857H60.7398ZM95.0968 82.5457V86.0977H81.5448V62.9617H85.8488V82.5457H95.0968ZM106.857 82.6257C107.689 82.6257 108.43 82.487 109.081 82.2097C109.742 81.9323 110.297 81.543 110.745 81.0417C111.193 80.5403 111.534 79.9323 111.769 79.2177C112.014 78.503 112.137 77.703 112.137 76.8177V62.9617H116.441V76.8177C116.441 78.1937 116.217 79.4683 115.769 80.6417C115.331 81.8043 114.697 82.8123 113.865 83.6657C113.043 84.5083 112.041 85.1697 110.857 85.6497C109.673 86.119 108.339 86.3537 106.857 86.3537C105.363 86.3537 104.025 86.119 102.841 85.6497C101.657 85.1697 100.649 84.5083 99.8168 83.6657C98.9954 82.8123 98.3608 81.8043 97.9128 80.6417C97.4754 79.4683 97.2568 78.1937 97.2568 76.8177V62.9617H101.561V76.8017C101.561 77.687 101.678 78.487 101.913 79.2017C102.158 79.9163 102.505 80.5297 102.953 81.0417C103.411 81.543 103.966 81.9323 104.617 82.2097C105.278 82.487 106.025 82.6257 106.857 82.6257ZM140.095 86.0977H135.807C135.508 86.0977 135.268 86.023 135.087 85.8737C134.916 85.7243 134.777 85.5537 134.671 85.3617L129.311 76.4817C129.225 76.7483 129.124 76.9777 129.007 77.1697L123.871 85.3617C123.743 85.543 123.593 85.7137 123.423 85.8737C123.263 86.023 123.049 86.0977 122.783 86.0977H118.767L126.447 74.1937L119.071 62.9617H123.359C123.657 62.9617 123.871 63.0043 123.999 63.0897C124.137 63.1643 124.265 63.2923 124.383 63.4737L129.647 71.9537C129.753 71.687 129.881 71.4203 130.031 71.1537L134.863 63.5537C134.98 63.351 135.108 63.2017 135.247 63.1057C135.385 63.0097 135.561 62.9617 135.775 62.9617H139.887L132.447 74.0177L140.095 86.0977ZM147.084 66.3857V72.8017H155.18V76.1137H147.084V82.6577H157.356V86.0977H142.764V62.9617H157.356V66.3857H147.084ZM168.162 73.9697C168.972 73.9697 169.676 73.8683 170.274 73.6657C170.882 73.463 171.378 73.1857 171.762 72.8337C172.156 72.471 172.45 72.0443 172.642 71.5537C172.834 71.063 172.93 70.5243 172.93 69.9377C172.93 68.7643 172.54 67.863 171.762 67.2337C170.994 66.6043 169.815 66.2897 168.226 66.2897H165.474V73.9697H168.162ZM179.234 86.0977H175.346C174.61 86.0977 174.076 85.8097 173.746 85.2337L168.882 77.8257C168.7 77.5483 168.498 77.351 168.274 77.2337C168.06 77.1163 167.74 77.0577 167.314 77.0577H165.474V86.0977H161.17V62.9617H168.226C169.794 62.9617 171.138 63.127 172.258 63.4577C173.388 63.7777 174.311 64.231 175.026 64.8177C175.751 65.4043 176.284 66.1083 176.626 66.9297C176.967 67.7403 177.138 68.6363 177.138 69.6177C177.138 70.3963 177.02 71.1323 176.786 71.8257C176.562 72.519 176.231 73.1483 175.794 73.7137C175.367 74.279 174.834 74.775 174.194 75.2017C173.564 75.6283 172.844 75.9643 172.034 76.2097C172.311 76.3697 172.567 76.5617 172.802 76.7857C173.036 76.999 173.25 77.255 173.442 77.5537L179.234 86.0977ZM186.052 86.0977H181.732V62.9617H186.052V86.0977ZM213.296 74.5297C213.296 76.2257 213.014 77.799 212.448 79.2497C211.894 80.6897 211.104 81.9377 210.08 82.9937C209.056 84.0497 207.824 84.8763 206.384 85.4737C204.944 86.0603 203.344 86.3537 201.584 86.3537C199.835 86.3537 198.24 86.0603 196.8 85.4737C195.36 84.8763 194.123 84.0497 193.088 82.9937C192.064 81.9377 191.27 80.6897 190.704 79.2497C190.139 77.799 189.856 76.2257 189.856 74.5297C189.856 72.8337 190.139 71.2657 190.704 69.8257C191.27 68.375 192.064 67.1217 193.088 66.0657C194.123 65.0097 195.36 64.1883 196.8 63.6017C198.24 63.0043 199.835 62.7057 201.584 62.7057C202.758 62.7057 203.862 62.8443 204.896 63.1217C205.931 63.3883 206.88 63.7723 207.744 64.2737C208.608 64.7643 209.382 65.367 210.064 66.0817C210.758 66.7857 211.344 67.575 211.824 68.4497C212.304 69.3243 212.667 70.2737 212.912 71.2977C213.168 72.3217 213.296 73.399 213.296 74.5297ZM208.896 74.5297C208.896 73.2603 208.726 72.1243 208.384 71.1217C208.043 70.1083 207.558 69.2497 206.928 68.5457C206.299 67.8417 205.531 67.303 204.624 66.9297C203.728 66.5563 202.715 66.3697 201.584 66.3697C200.454 66.3697 199.435 66.5563 198.528 66.9297C197.632 67.303 196.864 67.8417 196.224 68.5457C195.595 69.2497 195.11 70.1083 194.768 71.1217C194.427 72.1243 194.256 73.2603 194.256 74.5297C194.256 75.799 194.427 76.9403 194.768 77.9537C195.11 78.9563 195.595 79.8097 196.224 80.5137C196.864 81.207 197.632 81.7403 198.528 82.1137C199.435 82.487 200.454 82.6737 201.584 82.6737C202.715 82.6737 203.728 82.487 204.624 82.1137C205.531 81.7403 206.299 81.207 206.928 80.5137C207.558 79.8097 208.043 78.9563 208.384 77.9537C208.726 76.9403 208.896 75.799 208.896 74.5297ZM226.388 82.6257C227.22 82.6257 227.961 82.487 228.612 82.2097C229.273 81.9323 229.828 81.543 230.276 81.0417C230.724 80.5403 231.065 79.9323 231.3 79.2177C231.545 78.503 231.668 77.703 231.668 76.8177V62.9617H235.972V76.8177C235.972 78.1937 235.748 79.4683 235.3 80.6417C234.863 81.8043 234.228 82.8123 233.396 83.6657C232.575 84.5083 231.572 85.1697 230.388 85.6497C229.204 86.119 227.871 86.3537 226.388 86.3537C224.895 86.3537 223.556 86.119 222.372 85.6497C221.188 85.1697 220.18 84.5083 219.348 83.6657C218.527 82.8123 217.892 81.8043 217.444 80.6417C217.007 79.4683 216.788 78.1937 216.788 76.8177V62.9617H221.092V76.8017C221.092 77.687 221.209 78.487 221.444 79.2017C221.689 79.9163 222.036 80.5297 222.484 81.0417C222.943 81.543 223.497 81.9323 224.148 82.2097C224.809 82.487 225.556 82.6257 226.388 82.6257ZM253.146 67.1697C253.018 67.3937 252.879 67.559 252.73 67.6657C252.591 67.7617 252.415 67.8097 252.202 67.8097C251.978 67.8097 251.733 67.7297 251.466 67.5697C251.21 67.399 250.901 67.2123 250.538 67.0097C250.175 66.807 249.749 66.6257 249.258 66.4657C248.778 66.295 248.207 66.2097 247.546 66.2097C246.949 66.2097 246.426 66.2843 245.978 66.4337C245.53 66.5723 245.151 66.7697 244.842 67.0257C244.543 67.2817 244.319 67.591 244.17 67.9537C244.021 68.3057 243.946 68.695 243.946 69.1217C243.946 69.6657 244.095 70.119 244.394 70.4817C244.703 70.8443 245.109 71.1537 245.61 71.4097C246.111 71.6657 246.682 71.895 247.322 72.0977C247.962 72.3003 248.618 72.519 249.29 72.7537C249.962 72.9777 250.618 73.2443 251.258 73.5537C251.898 73.8523 252.469 74.2363 252.97 74.7057C253.471 75.1643 253.871 75.7297 254.17 76.4017C254.479 77.0737 254.634 77.8897 254.634 78.8497C254.634 79.895 254.453 80.8763 254.09 81.7937C253.738 82.7003 253.215 83.495 252.522 84.1777C251.839 84.8497 251.002 85.383 250.01 85.7777C249.018 86.1617 247.882 86.3537 246.602 86.3537C245.866 86.3537 245.141 86.279 244.426 86.1297C243.711 85.991 243.023 85.7883 242.362 85.5217C241.711 85.255 241.098 84.935 240.522 84.5617C239.946 84.1883 239.434 83.7723 238.986 83.3137L240.25 81.2497C240.357 81.1003 240.495 80.9777 240.666 80.8817C240.837 80.775 241.018 80.7217 241.21 80.7217C241.477 80.7217 241.765 80.8337 242.074 81.0577C242.383 81.271 242.751 81.511 243.178 81.7777C243.605 82.0443 244.101 82.2897 244.666 82.5137C245.242 82.727 245.93 82.8337 246.73 82.8337C247.957 82.8337 248.906 82.5457 249.578 81.9697C250.25 81.383 250.586 80.5457 250.586 79.4577C250.586 78.8497 250.431 78.3537 250.122 77.9697C249.823 77.5857 249.423 77.2657 248.922 77.0097C248.421 76.743 247.85 76.519 247.21 76.3377C246.57 76.1563 245.919 75.959 245.258 75.7457C244.597 75.5323 243.946 75.2763 243.306 74.9777C242.666 74.679 242.095 74.2897 241.594 73.8097C241.093 73.3297 240.687 72.7323 240.378 72.0177C240.079 71.2923 239.93 70.4017 239.93 69.3457C239.93 68.503 240.095 67.6817 240.426 66.8817C240.767 66.0817 241.258 65.3723 241.898 64.7537C242.538 64.135 243.327 63.639 244.266 63.2657C245.205 62.8923 246.282 62.7057 247.498 62.7057C248.863 62.7057 250.122 62.919 251.274 63.3457C252.426 63.7723 253.407 64.3697 254.218 65.1377L253.146 67.1697Z" fill="#222222"/>
<path d="M270.49 66.3857V73.2337H279.162V76.6737H270.49V86.0977H266.17V62.9617H280.762V66.3857H270.49ZM294.613 77.3617L291.797 69.6657C291.658 69.3243 291.514 68.919 291.365 68.4497C291.215 67.9803 291.066 67.4737 290.917 66.9297C290.778 67.4737 290.634 67.9857 290.485 68.4657C290.335 68.935 290.191 69.3457 290.053 69.6977L287.253 77.3617H294.613ZM302.213 86.0977H298.885C298.511 86.0977 298.207 86.007 297.973 85.8257C297.738 85.6337 297.562 85.399 297.444 85.1217L295.717 80.4017H286.133L284.405 85.1217C284.319 85.367 284.154 85.591 283.909 85.7937C283.663 85.9963 283.359 86.0977 282.997 86.0977H279.636L288.741 62.9617H293.125L302.213 86.0977ZM316.927 67.1697C316.799 67.3937 316.661 67.559 316.511 67.6657C316.373 67.7617 316.197 67.8097 315.983 67.8097C315.759 67.8097 315.514 67.7297 315.247 67.5697C314.991 67.399 314.682 67.2123 314.319 67.0097C313.957 66.807 313.53 66.6257 313.039 66.4657C312.559 66.295 311.989 66.2097 311.327 66.2097C310.73 66.2097 310.207 66.2843 309.759 66.4337C309.311 66.5723 308.933 66.7697 308.623 67.0257C308.325 67.2817 308.101 67.591 307.951 67.9537C307.802 68.3057 307.727 68.695 307.727 69.1217C307.727 69.6657 307.877 70.119 308.175 70.4817C308.485 70.8443 308.89 71.1537 309.391 71.4097C309.893 71.6657 310.463 71.895 311.103 72.0977C311.743 72.3003 312.399 72.519 313.071 72.7537C313.743 72.9777 314.399 73.2443 315.039 73.5537C315.679 73.8523 316.25 74.2363 316.751 74.7057C317.253 75.1643 317.653 75.7297 317.951 76.4017C318.261 77.0737 318.415 77.8897 318.415 78.8497C318.415 79.895 318.234 80.8763 317.871 81.7937C317.519 82.7003 316.997 83.495 316.303 84.1777C315.621 84.8497 314.783 85.383 313.791 85.7777C312.799 86.1617 311.663 86.3537 310.383 86.3537C309.647 86.3537 308.922 86.279 308.207 86.1297C307.493 85.991 306.805 85.7883 306.143 85.5217C305.493 85.255 304.879 84.935 304.303 84.5617C303.727 84.1883 303.215 83.7723 302.767 83.3137L304.031 81.2497C304.138 81.1003 304.277 80.9777 304.447 80.8817C304.618 80.775 304.799 80.7217 304.991 80.7217C305.258 80.7217 305.546 80.8337 305.855 81.0577C306.165 81.271 306.533 81.511 306.959 81.7777C307.386 82.0443 307.882 82.2897 308.447 82.5137C309.023 82.727 309.711 82.8337 310.511 82.8337C311.738 82.8337 312.687 82.5457 313.359 81.9697C314.031 81.383 314.367 80.5457 314.367 79.4577C314.367 78.8497 314.213 78.3537 313.903 77.9697C313.605 77.5857 313.205 77.2657 312.703 77.0097C312.202 76.743 311.631 76.519 310.991 76.3377C310.351 76.1563 309.701 75.959 309.039 75.7457C308.378 75.5323 307.727 75.2763 307.087 74.9777C306.447 74.679 305.877 74.2897 305.375 73.8097C304.874 73.3297 304.469 72.7323 304.159 72.0177C303.861 71.2923 303.711 70.4017 303.711 69.3457C303.711 68.503 303.877 67.6817 304.207 66.8817C304.549 66.0817 305.039 65.3723 305.679 64.7537C306.319 64.135 307.109 63.639 308.047 63.2657C308.986 62.8923 310.063 62.7057 311.279 62.7057C312.645 62.7057 313.903 62.919 315.055 63.3457C316.207 63.7723 317.189 64.3697 317.999 65.1377L316.927 67.1697ZM341.674 62.9617V86.0977H337.354V75.9857H326.49V86.0977H322.17V62.9617H326.49V72.9137H337.354V62.9617H341.674ZM351.146 86.0977H346.826V62.9617H351.146V86.0977ZM378.39 74.5297C378.39 76.2257 378.107 77.799 377.542 79.2497C376.987 80.6897 376.198 81.9377 375.174 82.9937C374.15 84.0497 372.918 84.8763 371.478 85.4737C370.038 86.0603 368.438 86.3537 366.678 86.3537C364.929 86.3537 363.334 86.0603 361.894 85.4737C360.454 84.8763 359.217 84.0497 358.182 82.9937C357.158 81.9377 356.363 80.6897 355.798 79.2497C355.233 77.799 354.95 76.2257 354.95 74.5297C354.95 72.8337 355.233 71.2657 355.798 69.8257C356.363 68.375 357.158 67.1217 358.182 66.0657C359.217 65.0097 360.454 64.1883 361.894 63.6017C363.334 63.0043 364.929 62.7057 366.678 62.7057C367.851 62.7057 368.955 62.8443 369.99 63.1217C371.025 63.3883 371.974 63.7723 372.838 64.2737C373.702 64.7643 374.475 65.367 375.158 66.0817C375.851 66.7857 376.438 67.575 376.918 68.4497C377.398 69.3243 377.761 70.2737 378.006 71.2977C378.262 72.3217 378.39 73.399 378.39 74.5297ZM373.99 74.5297C373.99 73.2603 373.819 72.1243 373.478 71.1217C373.137 70.1083 372.651 69.2497 372.022 68.5457C371.393 67.8417 370.625 67.303 369.718 66.9297C368.822 66.5563 367.809 66.3697 366.678 66.3697C365.547 66.3697 364.529 66.5563 363.622 66.9297C362.726 67.303 361.958 67.8417 361.318 68.5457C360.689 69.2497 360.203 70.1083 359.862 71.1217C359.521 72.1243 359.35 73.2603 359.35 74.5297C359.35 75.799 359.521 76.9403 359.862 77.9537C360.203 78.9563 360.689 79.8097 361.318 80.5137C361.958 81.207 362.726 81.7403 363.622 82.1137C364.529 82.487 365.547 82.6737 366.678 82.6737C367.809 82.6737 368.822 82.487 369.718 82.1137C370.625 81.7403 371.393 81.207 372.022 80.5137C372.651 79.8097 373.137 78.9563 373.478 77.9537C373.819 76.9403 373.99 75.799 373.99 74.5297ZM401.674 62.9617V86.0977H399.466C399.124 86.0977 398.836 86.0443 398.602 85.9377C398.378 85.8203 398.159 85.6283 397.946 85.3617L385.866 69.9377C385.93 70.6417 385.962 71.2923 385.962 71.8897V86.0977H382.17V62.9617H384.426C384.607 62.9617 384.762 62.9723 384.89 62.9937C385.028 63.0043 385.146 63.0363 385.242 63.0897C385.348 63.1323 385.45 63.2017 385.546 63.2977C385.642 63.383 385.748 63.5003 385.866 63.6497L397.994 79.1377C397.962 78.7643 397.935 78.3963 397.914 78.0337C397.892 77.671 397.882 77.335 397.882 77.0257V62.9617H401.674Z" fill="#F16D7F"/>
</svg>
